<?xml version="1.0" encoding="utf-8"?>
<!-- Generator: Adobe Illustrator 21.0.2, SVG Export Plug-In . SVG Version: 6.00 Build 0)  -->
<svg version="1.1" xmlns="http://www.w3.org/2000/svg" xmlns:xlink="http://www.w3.org/1999/xlink" x="0px" y="0px"
	 viewBox="0 0 500 500" style="enable-background:new 0 0 500 500;" xml:space="preserve">
<style type="text/css">
	.st0{fill:url(#SVGID_1_);}
	.st1{fill:none;stroke:#FFFFFF;stroke-width:2;stroke-miterlimit:10;}
	.st2{fill:#9D9FA1;}
	.st3{font-family:'Montserrat-SemiBold';}
	.st4{font-size:36px;}
	.st5{fill:#FFFFFF;}
	.st6{opacity:0.2;fill:url(#SVGID_2_);}
	.st7{fill:url(#SVGID_3_);}
	.st8{fill:#828282;}
	.st9{font-family:'Montserrat-Light';}
	.st10{font-size:9.5888px;}
	.st11{fill:none;}
	.st12{font-size:4.1302px;}
	.st13{opacity:0.1;}
	.st14{opacity:0.2;fill:url(#SVGID_4_);}
	.st15{fill:url(#SVGID_5_);}
	.st16{opacity:0.2;fill:url(#SVGID_6_);}
	.st17{fill:url(#SVGID_7_);}
	.st18{opacity:0.2;fill:url(#SVGID_8_);}
	.st19{fill:url(#SVGID_9_);}
	.st20{opacity:0.2;}
	.st21{opacity:0.2;fill:url(#SVGID_10_);}
	.st22{fill:url(#SVGID_11_);}
	.st23{font-size:4.2px;}
	.st24{clip-path:url(#SVGID_13_);fill:url(#SVGID_14_);}
</style>
<g id="BACKGROUND">
	<radialGradient id="SVGID_1_" cx="250" cy="250.0002" r="250" gradientUnits="userSpaceOnUse">
		<stop  offset="0" style="stop-color:#E8E8E8"/>
		<stop  offset="1" style="stop-color:#CCCCCC"/>
	</radialGradient>
	<rect y="0" class="st0" width="500" height="500"/>
</g>
<g id="OBJECTS">
	<g>
		<polyline class="st1" points="229.8,50 153.4,50 88.8,73.6 		"/>
		<line class="st1" x1="177" y1="226.4" x2="279.6" y2="226.4"/>
		<line class="st1" x1="153.4" y1="138.2" x2="279.6" y2="138.2"/>
		<polyline class="st1" points="229.8,402.7 153.4,402.7 88.8,379.1 		"/>
		<line class="st1" x1="153.4" y1="314.6" x2="279.6" y2="314.6"/>
		<text transform="matrix(1 0 0 1 17.1453 252.6008)" class="st2 st3 st4">css</text>
		<g>
			<path class="st5" d="M437,256H266.4v-59.3H437c8.2,0,14.8,6.6,14.8,14.8v29.8C451.8,249.4,445.2,256,437,256z"/>
			<linearGradient id="SVGID_2_" gradientUnits="userSpaceOnUse" x1="289.6201" y1="256.0385" x2="289.6201" y2="196.727">
				<stop  offset="0" style="stop-color:#000000"/>
				<stop  offset="1" style="stop-color:#000000;stop-opacity:0"/>
			</linearGradient>
			<path class="st6" d="M254.7,256h58.8c6.9-8,11-18.3,11-29.7c0-11.3-4.2-21.7-11-29.7h-58.8V256z"/>
			<linearGradient id="SVGID_3_" gradientUnits="userSpaceOnUse" x1="251.4051" y1="254.5913" x2="307.8222" y2="198.1741">
				<stop  offset="0" style="stop-color:#642B73"/>
				<stop  offset="1" style="stop-color:#C6426E"/>
			</linearGradient>
			<circle class="st7" cx="279.6" cy="226.4" r="39.9"/>
			<g>
				<text transform="matrix(1 0 0 1 338.7605 213.0447)" class="st8 st9 st10">BLOQUE DE DECL.</text>
				<g>
					<rect x="339.9" y="220.2" class="st11" width="100.9" height="43.8"/>
					<text transform="matrix(1 0 0 1 339.8797 223.2986)"><tspan x="0" y="0" class="st8 st9 st12">Un bloque de declaraciones consiste en una lista </tspan><tspan x="0" y="5" class="st8 st9 st12">de declaraciones unidas. Cada declaración </tspan><tspan x="0" y="9.9" class="st8 st9 st12">consiste en una propiedad, dos puntos (:), y un </tspan><tspan x="0" y="14.9" class="st8 st9 st12">valor. Si hay muchas declaraciones en un bloque, </tspan><tspan x="0" y="19.8" class="st8 st9 st12">un punto y coma (;) es insertado para separar </tspan><tspan x="0" y="24.8" class="st8 st9 st12">cada declaración.</tspan></text>
				</g>
			</g>
			<g class="st13">
				<path class="st5" d="M314,206.3c-1.2-2-2.6-4-4.1-5.7l-56.2,56.2c1.8,1.5,3.7,2.9,5.7,4.1L314,206.3z"/>
				<path class="st5" d="M250.8,253.9l56.4-56.4c-3.4-3.3-7.4-5.9-11.8-7.8l-52.4,52.4C244.8,246.5,247.5,250.5,250.8,253.9z"/>
			</g>
		</g>
		<g>
			<path class="st5" d="M437,344.2H239.7v-59.3H437c8.2,0,14.8,6.6,14.8,14.8v29.8C451.8,337.6,445.2,344.2,437,344.2z"/>
			<linearGradient id="SVGID_4_" gradientUnits="userSpaceOnUse" x1="260.8536" y1="344.2198" x2="260.8536" y2="284.9082">
				<stop  offset="0" style="stop-color:#000000"/>
				<stop  offset="1" style="stop-color:#000000;stop-opacity:0"/>
			</linearGradient>
			<path class="st14" d="M225.9,344.2h58.8c6.9-8,11-18.3,11-29.7s-4.2-21.7-11-29.7h-58.8V344.2z"/>
			<linearGradient id="SVGID_5_" gradientUnits="userSpaceOnUse" x1="222.6386" y1="342.7726" x2="279.0558" y2="286.3554">
				<stop  offset="0" style="stop-color:#FF416C"/>
				<stop  offset="1" style="stop-color:#FF642B"/>
			</linearGradient>
			<circle class="st15" cx="250.8" cy="314.6" r="39.9"/>
			<g>
				<text transform="matrix(1 0 0 1 309.7146 301.2258)" class="st8 st9 st10">NIVELES</text>
				<g>
					<rect x="310.6" y="307.3" class="st11" width="130.5" height="41.7"/>
					<text transform="matrix(1 0 0 1 310.5538 310.3293)"><tspan x="0" y="0" class="st8 st9 st12">CSS se ha creado en varios niveles y perfiles. Cada nivel de CSS </tspan><tspan x="0" y="5" class="st8 st9 st12">se construye sobre el anterior, generalmente añadiendo </tspan><tspan x="0" y="9.9" class="st8 st9 st12">funciones al nivel previo.</tspan><tspan x="0" y="14.9" class="st8 st9 st12">Los perfiles son, generalmente, parte de uno o varios niveles de </tspan><tspan x="0" y="19.8" class="st8 st9 st12">CSS definidos para un dispositivo o interfaz particular. </tspan><tspan x="0" y="24.8" class="st8 st9 st12">Actualmente, pueden usarse perfiles para dispositivos móviles, </tspan><tspan x="0" y="29.7" class="st8 st9 st12">impresoras o televisiones.</tspan></text>
				</g>
			</g>
			<g class="st13">
				<path class="st5" d="M286.4,296.5c-1.1-2.1-2.3-4.1-3.8-6l-55.9,55.9c1.9,1.4,3.9,2.7,6,3.8L286.4,296.5z"/>
				<path class="st5" d="M268.8,278.9l-53.6,53.6c2.1,4.2,5,8,8.4,11.2l56.4-56.4C276.8,283.9,273,281,268.8,278.9z"/>
			</g>
		</g>
		<g>
			<path class="st5" d="M437,432.4H207.9v-59.3H437c8.2,0,14.8,6.6,14.8,14.8v29.8C451.8,425.8,445.2,432.4,437,432.4z"/>
			<linearGradient id="SVGID_6_" gradientUnits="userSpaceOnUse" x1="232.0871" y1="432.401" x2="232.0871" y2="373.0895">
				<stop  offset="0" style="stop-color:#000000"/>
				<stop  offset="1" style="stop-color:#000000;stop-opacity:0"/>
			</linearGradient>
			<path class="st16" d="M197.2,432.4H256c6.9-8,11-18.3,11-29.7c0-11.3-4.2-21.7-11-29.7h-58.8V432.4z"/>
			<linearGradient id="SVGID_7_" gradientUnits="userSpaceOnUse" x1="193.8721" y1="430.9539" x2="250.2893" y2="374.5367">
				<stop  offset="0" style="stop-color:#50C9F1"/>
				<stop  offset="1" style="stop-color:#9159F5"/>
			</linearGradient>
			<circle class="st17" cx="222.1" cy="402.7" r="39.9"/>
			<g>
				<text transform="matrix(1 0 0 1 289.0603 389.4065)" class="st8 st9 st10">HISTORIA</text>
				<g>
					<rect x="289.6" y="396.6" class="st11" width="151.1" height="21.8"/>
					<text transform="matrix(1 0 0 1 289.6199 399.6614)"><tspan x="0" y="0" class="st8 st9 st12">CSS fue propuesto por primera vez por Håkon Wium Lie el 10 de octubre </tspan><tspan x="0" y="5" class="st8 st9 st12">de 1994. Al mismo tiempo, Lie trabajaba con Tim Berners-Lee en el CERN.</tspan><tspan x="0" y="9.9" class="st8 st9 st12">En particular, la propuesta de Bert Bos fue influyente; él fue el coautor de </tspan><tspan x="0" y="14.9" class="st8 st9 st12">CSS1 y es reconocido como el cocreador de CSS.</tspan></text>
				</g>
			</g>
			<g class="st13">
				<path class="st5" d="M243.2,368.9l-55,55c2.5,4,5.6,7.5,9.3,10.3l56-56C250.6,374.5,247.1,371.4,243.2,368.9z"/>
				<path class="st5" d="M259.2,388.1c-0.9-2.3-2-4.5-3.3-6.5l-55,55c2.1,1.3,4.2,2.4,6.5,3.3L259.2,388.1z"/>
			</g>
		</g>
		<g>
			<path class="st5" d="M437,167.9H237.1v-59.3H437c8.2,0,14.8,6.6,14.8,14.8v29.8C451.8,161.2,445.2,167.9,437,167.9z"/>
			<linearGradient id="SVGID_8_" gradientUnits="userSpaceOnUse" x1="260.8536" y1="167.8572" x2="260.8536" y2="108.5457">
				<stop  offset="0" style="stop-color:#000000"/>
				<stop  offset="1" style="stop-color:#000000;stop-opacity:0"/>
			</linearGradient>
			<path class="st18" d="M225.9,167.9h58.8c6.9-8,11-18.3,11-29.7c0-11.3-4.2-21.7-11-29.7h-58.8V167.9z"/>
			<linearGradient id="SVGID_9_" gradientUnits="userSpaceOnUse" x1="222.6386" y1="166.4101" x2="279.0558" y2="109.9929">
				<stop  offset="0" style="stop-color:#15BAAD"/>
				<stop  offset="1" style="stop-color:#38EF7D"/>
			</linearGradient>
			<circle class="st19" cx="250.8" cy="138.2" r="39.9"/>
			<g>
				<text transform="matrix(1 0 0 1 307.1507 124.8629)" class="st8 st9 st10">SELECTORES</text>
				<g>
					<rect x="307.7" y="128.5" class="st11" width="129.9" height="41.6"/>
					<text transform="matrix(1 0 0 1 307.7093 131.528)"><tspan x="0" y="0" class="st8 st9 st12">Los selectores declaran qué etiquetas se le aplican los estilos </tspan><tspan x="0" y="5" class="st8 st9 st12">que coincidan con la etiqueta o atributo señalados en la regla.</tspan><tspan x="0" y="9.9" class="st8 st9 st12">Los selectores pueden aplicarse a:</tspan><tspan x="0" y="14.9" class="st8 st9 st12">Todos los elementos de un tipo, como los párrafos &lt;p&gt;.</tspan><tspan x="0" y="19.8" class="st8 st9 st12">Elementos seguidos de un atributo, en particular:</tspan><tspan x="0" y="24.8" class="st8 st9 st12">id: identificador, un identificador único para la etiqueta.</tspan><tspan x="0" y="29.7" class="st8 st9 st12">class: clase, un identificador para anotar múltiples elementos.</tspan></text>
				</g>
			</g>
			<g class="st20">
				<path class="st5" d="M268.5,102.4l-53.4,53.4c2.1,4.2,4.9,8.1,8.3,11.3l56.4-56.4C276.6,107.4,272.8,104.5,268.5,102.4z"/>
				<path class="st5" d="M286.3,119.9c-1.1-2.1-2.4-4.1-3.8-6l-55.9,55.9c1.9,1.4,3.9,2.7,6,3.8L286.3,119.9z"/>
			</g>
		</g>
		<g>
			<path class="st5" d="M437,79.7H210V20.4h227c8.2,0,14.8,6.6,14.8,14.8v29.8C451.8,73.1,445.2,79.7,437,79.7z"/>
			<linearGradient id="SVGID_10_" gradientUnits="userSpaceOnUse" x1="232.0871" y1="79.676" x2="232.0871" y2="20.3644">
				<stop  offset="0" style="stop-color:#000000"/>
				<stop  offset="1" style="stop-color:#000000;stop-opacity:0"/>
			</linearGradient>
			<path class="st21" d="M197.2,79.7H256c6.9-8,11-18.3,11-29.7c0-11.3-4.2-21.7-11-29.7h-58.8V79.7z"/>
			<linearGradient id="SVGID_11_" gradientUnits="userSpaceOnUse" x1="193.8721" y1="78.2288" x2="250.2893" y2="21.8116">
				<stop  offset="0" style="stop-color:#F12711"/>
				<stop  offset="1" style="stop-color:#F5AF19"/>
			</linearGradient>
			<circle class="st22" cx="222.1" cy="50" r="39.9"/>
			<g>
				<text transform="matrix(1 0 0 1 279.0545 36.6819)" class="st8 st9 st10">¿QUÉ ES?</text>
				<g>
					<rect x="279.6" y="43.9" class="st11" width="161.1" height="21.8"/>
					<text transform="matrix(1 0 0 1 279.6131 46.988)"><tspan x="0" y="0" class="st8 st9 st23">&quot;Hojas de estilo en cascada&quot;, es un lenguaje de diseño gráfico para definir y </tspan><tspan x="0" y="5" class="st8 st9 st23">crear la presentación de un documento estructurado escrito en un lenguaje </tspan><tspan x="0" y="10.1" class="st8 st9 st23">de marcado.</tspan></text>
				</g>
			</g>
			<g class="st20">
				<path class="st5" d="M255.9,28.8c-1.2-2-2.7-3.9-4.2-5.6l-56.3,56.3c1.7,1.6,3.6,3,5.6,4.2L255.9,28.8z"/>
				<path class="st5" d="M192.4,76.7l56.3-56.3c-3.5-3.2-7.6-5.7-12.1-7.5l-51.7,51.7C186.7,69,189.2,73.1,192.4,76.7z"/>
			</g>
		</g>
		<g>
			<defs>
				<rect id="SVGID_12_" y="0" width="500" height="500"/>
			</defs>
			<clipPath id="SVGID_13_">
				<use xlink:href="#SVGID_12_"  style="overflow:visible;"/>
			</clipPath>
			<linearGradient id="SVGID_14_" gradientUnits="userSpaceOnUse" x1="6.9051" y1="404.663" x2="6.9051" y2="48.1024">
				<stop  offset="7.211540e-03" style="stop-color:#9159F5"/>
				<stop  offset="0.3094" style="stop-color:#FF642B"/>
				<stop  offset="0.4576" style="stop-color:#C6426E"/>
				<stop  offset="0.6422" style="stop-color:#15BAAD"/>
				<stop  offset="0.7916" style="stop-color:#F5AF19"/>
				<stop  offset="1" style="stop-color:#F12711"/>
			</linearGradient>
			<path class="st24" d="M191.5,226.4c0-4.6-2.1-8.7-5.5-11.3c-5-4-8.3-9.8-9.2-16.2c-2-12.7-5.3-25-9.9-36.8
				c-2.3-6-2.4-12.7,0-18.8c1.5-3.9,1.3-8.5-1-12.4c-2.3-4-6.1-6.4-10.3-7.1c-6.4-1-12.2-4.3-16.2-9.4c-8-9.9-17-18.9-26.9-26.9
				c-5-4.1-8.4-9.8-9.4-16.2c-0.6-4.2-3.1-8-7.1-10.3c-3.9-2.3-8.5-2.5-12.4-1c-6.1,2.3-12.7,2.3-18.8,0c-20.6-8-43-12.2-66.4-12
				c-97.1,1.2-175.8,80.8-176,177.9c-0.2,98.5,79.8,178.7,178.3,178.7c22.7,0,44.5-4.3,64.5-12.1c5.9-2.3,12.5-2.2,18.5,0.1
				c3.9,1.5,8.5,1.3,12.4-1c4-2.3,6.4-6.1,7.1-10.3c1-6.4,4.3-12.2,9.4-16.2c9.9-8,18.9-17,26.9-26.9c4.1-5,9.8-8.4,16.2-9.4
				c4.2-0.6,8-3.1,10.3-7.1c2.3-3.9,2.5-8.5,1-12.4c-2.3-6.1-2.3-12.7,0-18.8c4.5-11.7,7.9-24,9.9-36.8c1-6.4,4.2-12.2,9.2-16.2
				C189.3,235.1,191.5,231,191.5,226.4z M113.3,359.5c-6,5.1-14.1,6.8-21.9,5.4c-3.2-0.6-6.7-0.1-9.8,1.7c-3.1,1.8-5.3,4.5-6.4,7.7
				c-2.7,7.5-8.1,13.7-15.6,16.3c-19.1,6.9-39.7,10.5-61.2,10.2c-95-1.2-172-79.1-172.2-174.1C-174,130.4-95.7,51.9,0.6,51.9
				c20.6,0,40.3,3.6,58.7,10.2c7.6,2.7,13.2,8.9,15.9,16.4c1.1,3.1,3.3,5.9,6.4,7.7c3.1,1.8,6.5,2.3,9.8,1.7
				c7.8-1.4,15.9,0.3,21.9,5.4c7.4,6.2,14.2,13.1,20.4,20.4c5.1,6,6.8,14.1,5.4,21.9c-0.6,3.2-0.1,6.7,1.7,9.8
				c1.8,3.1,4.5,5.3,7.7,6.4c7.5,2.7,13.7,8.2,16.4,15.6c3.2,8.9,5.7,18.1,7.4,27.5c1.4,7.9-1,15.9-6.2,21.9
				c-2.2,2.5-3.5,5.8-3.5,9.5c0,3.6,1.3,6.9,3.5,9.5c5.2,6.1,7.7,14.1,6.2,21.9c-1.7,9.5-4.2,18.7-7.4,27.5
				c-2.7,7.5-8.9,13-16.4,15.6c-3.1,1.1-5.9,3.3-7.7,6.4c-1.8,3.1-2.3,6.5-1.7,9.8c1.4,7.8-0.3,15.9-5.4,21.9
				C127.5,346.4,120.6,353.2,113.3,359.5z"/>
		</g>
		<g>
			<path class="st5" d="M95.1,375.5c-1-1.7-2.5-2.9-4.4-3.4c-1.9-0.5-3.8-0.2-5.5,0.7c-3.5,2-4.7,6.5-2.7,10c1,1.7,2.5,2.9,4.4,3.4
				c1.9,0.5,3.8,0.2,5.5-0.7c1.7-1,2.9-2.5,3.4-4.4C96.4,379.1,96.1,377.2,95.1,375.5z"/>
			<path class="st5" d="M157,308.2c-1.1-0.6-2.4-1-3.6-1c-0.6,0-1.3,0.1-1.9,0.3c-1.9,0.5-3.5,1.7-4.4,3.4c-1,1.7-1.2,3.7-0.7,5.5
				c0.5,1.9,1.7,3.5,3.4,4.4h0c1.7,1,3.7,1.2,5.5,0.7c1.9-0.5,3.5-1.7,4.4-3.4C161.7,314.7,160.5,310.3,157,308.2z"/>
			<circle class="st5" cx="177" cy="226.4" r="7.3"/>
			<path class="st5" d="M147,141.8c1,1.7,2.5,2.9,4.4,3.4c1.9,0.5,3.8,0.2,5.5-0.7h0c3.5-2,4.7-6.5,2.7-10c-1-1.7-2.5-2.9-4.4-3.4
				c-0.6-0.2-1.3-0.3-1.9-0.3c-1.3,0-2.5,0.3-3.6,1c-1.7,1-2.9,2.5-3.4,4.4C145.8,138.2,146.1,140.2,147,141.8z"/>
			<path class="st5" d="M92.4,67.3c-1.1-0.6-2.4-1-3.6-1c-0.6,0-1.3,0.1-1.9,0.3c-1.9,0.5-3.5,1.7-4.4,3.4c-2,3.5-0.8,8,2.7,10
				c1.7,1,3.7,1.2,5.5,0.7c1.9-0.5,3.5-1.7,4.4-3.4v0c1-1.7,1.2-3.7,0.7-5.5C95.3,69.9,94.1,68.3,92.4,67.3z"/>
		</g>
	</g>
</g>
<g id="DESIGNED_BY_FREEPIK">
</g>
</svg>
